<?xml version="1.0" encoding="UTF-8" standalone="no"?>
<!-- Created with Inkscape (http://www.inkscape.org/) -->

<svg
   version="1.1"
   id="svg2"
   width="1388.4746"
   height="1388.4746"
   viewBox="0 0 1388.4746 1388.4746"
   sodipodi:docname="js.svg"
   inkscape:version="1.1.2 (b8e25be833, 2022-02-05)"
   xmlns:inkscape="http://www.inkscape.org/namespaces/inkscape"
   xmlns:sodipodi="http://sodipodi.sourceforge.net/DTD/sodipodi-0.dtd"
   xmlns="http://www.w3.org/2000/svg"
   xmlns:svg="http://www.w3.org/2000/svg">
  <defs
     id="defs6" />
  <sodipodi:namedview
     id="namedview4"
     pagecolor="#ffffff"
     bordercolor="#666666"
     borderopacity="1.0"
     inkscape:pageshadow="2"
     inkscape:pageopacity="0.0"
     inkscape:pagecheckerboard="0"
     showgrid="false"
     inkscape:snap-page="true"
     inkscape:snap-text-baseline="true"
     inkscape:snap-center="true"
     inkscape:snap-object-midpoints="true"
     inkscape:snap-midpoints="true"
     inkscape:snap-smooth-nodes="true"
     inkscape:object-paths="true"
     inkscape:snap-intersection-paths="true"
     inkscape:snap-bbox="true"
     inkscape:bbox-paths="true"
     inkscape:bbox-nodes="true"
     inkscape:snap-bbox-edge-midpoints="true"
     inkscape:snap-bbox-midpoints="true"
     inkscape:zoom="0.10478205"
     inkscape:cx="2715.1596"
     inkscape:cy="1507.8918"
     inkscape:window-width="1920"
     inkscape:window-height="1009"
     inkscape:window-x="-8"
     inkscape:window-y="-8"
     inkscape:window-maximized="1"
     inkscape:current-layer="g8" />
  <g
     inkscape:groupmode="layer"
     inkscape:label="Image"
     id="g8">
    <circle
       style="fill:#f7df1e;fill-opacity:1;stroke:none;stroke-width:6"
       id="path849"
       cx="694.2373"
       cy="694.2373"
       r="694.2373" />
    <g
       id="g1518"
       transform="translate(28.656448,-33.836984)"
       style="fill:#ffffff">
      <path
         style="fill:#ffffff;fill-opacity:1;stroke:none;stroke-width:5.06127;stroke-opacity:1"
         d="m 353.02347,1073.8484 c -0.9279,-0.4075 -4.41675,-0.7676 -7.75301,-0.8002 -3.33625,-0.033 -6.30051,-0.4389 -6.58725,-0.9029 -0.28674,-0.4639 -2.70059,-0.8435 -5.36412,-0.8435 -2.66353,0 -5.20339,-0.3504 -5.64414,-0.7787 -0.80469,-0.7819 -7.33773,-2.347 -13.24894,-3.174 -1.74272,-0.2438 -3.3784,-0.7827 -3.63485,-1.1977 -0.25645,-0.4149 -1.56025,-0.7544 -2.89734,-0.7544 -1.33708,0 -2.66566,-0.3796 -2.9524,-0.8436 -0.28674,-0.4639 -1.24525,-0.8435 -2.13003,-0.8435 -1.45322,0 -5.58309,-1.5184 -9.45726,-3.4772 -0.80562,-0.4073 -2.22911,-0.7405 -3.1633,-0.7405 -0.93419,0 -1.69853,-0.3796 -1.69853,-0.8436 0,-0.4639 -0.73911,-0.8435 -1.64246,-0.8435 -0.90334,0 -3.42726,-0.949 -5.60867,-2.1089 -2.18142,-1.1598 -4.47909,-2.1088 -5.10591,-2.1088 -0.62682,0 -1.13968,-0.3796 -1.13968,-0.8436 0,-0.4639 -0.55592,-0.8435 -1.23539,-0.8435 -0.67946,0 -3.05193,-1.0165 -5.27215,-2.2589 -2.22022,-1.2424 -5.55515,-3.0455 -7.41095,-4.0069 -1.8558,-0.9613 -3.56397,-1.9413 -3.79595,-2.1776 -1.09475,-1.1152 -7.65446,-5.0533 -8.41736,-5.0533 -0.4739,0 -0.86246,-0.2847 -0.86347,-0.6327 -0.001,-0.348 -1.70084,-1.7714 -3.7774,-3.1633 -2.07657,-1.3918 -3.78392,-2.8153 -3.79412,-3.1633 -0.0102,-0.3479 -0.39525,-0.6326 -0.85567,-0.6326 -0.85287,0 -3.76119,-2.2803 -7.26219,-5.694 -1.07059,-1.0439 -2.21621,-1.8979 -2.54582,-1.8979 -0.79468,0 -22.20102,-21.8366 -24.36197,-24.85165 -0.9279,-1.29464 -2.63573,-3.53986 -3.79519,-4.98938 -1.15946,-1.44952 -2.3982,-3.01508 -2.75276,-3.47903 -0.35457,-0.46395 -1.96451,-2.55173 -3.57764,-4.6395 -1.61314,-2.08777 -2.93666,-4.27045 -2.94117,-4.85038 -0.004,-0.57994 -0.38778,-1.05443 -0.85173,-1.05443 -0.46395,0 -0.84354,-0.40492 -0.84354,-0.89983 0,-0.49491 -0.94899,-2.14401 -2.10886,-3.66469 -1.15988,-1.52067 -2.10887,-3.17189 -2.10887,-3.66937 0,-0.49748 -0.28469,-1.03104 -0.63265,-1.1857 -0.34797,-0.15465 -1.7567,-2.46385 -3.13052,-5.13156 -1.37383,-2.66771 -2.79731,-4.85038 -3.1633,-4.85038 -0.36598,0 -0.66543,-0.55785 -0.66543,-1.23966 0,-0.68181 -0.75919,-2.59133 -1.68709,-4.24338 -2.1436,-3.8165 -2.1436,-6.06801 0,-6.74836 0.9279,-0.29451 1.68709,-0.81863 1.68709,-1.16472 0,-0.34609 1.32858,-1.15055 2.95241,-1.78769 1.62382,-0.63714 2.9524,-1.42291 2.9524,-1.74614 0,-0.32325 0.6643,-0.81581 1.47621,-1.09459 0.81191,-0.27877 2.99458,-1.46987 4.85038,-2.64688 1.8558,-1.17701 3.94357,-2.38873 4.6395,-2.69271 0.69592,-0.30398 2.43993,-1.43473 3.87557,-2.51277 1.43564,-1.07804 3.04892,-1.96008 3.58507,-1.96008 0.53614,0 0.97916,-0.28469 0.98448,-0.63266 0.005,-0.34796 1.51109,-1.35189 3.34616,-2.23094 1.83506,-0.87905 4.09241,-2.30254 5.01632,-3.16329 0.92391,-0.86076 2.2651,-1.56501 2.98043,-1.56501 0.71532,0 1.30058,-0.3796 1.30058,-0.84355 0,-0.46395 0.43867,-0.84354 0.97481,-0.84354 0.53615,0 2.14943,-0.88204 3.58507,-1.96008 1.43564,-1.07804 3.17965,-2.20879 3.87557,-2.51277 0.69593,-0.30398 2.7837,-1.5157 4.6395,-2.69271 1.8558,-1.177 4.03847,-2.36811 4.85038,-2.64688 0.81191,-0.27878 1.4762,-0.74952 1.4762,-1.04611 0,-0.29658 1.23369,-1.07599 2.74152,-1.73201 1.50784,-0.65602 2.93132,-1.41653 3.1633,-1.69002 0.63973,-0.75421 6.76154,-4.52908 10.39032,-6.40693 1.7711,-0.91654 3.9379,-2.33072 4.81511,-3.14263 0.8772,-0.81191 2.18018,-1.4762 2.89551,-1.4762 0.71532,0 1.30058,-0.3796 1.30058,-0.84355 0,-0.46395 0.38774,-0.84354 0.86164,-0.84354 0.824,0 7.53875,-4.08512 8.41736,-5.12095 0.23197,-0.27349 1.65545,-1.034 3.16329,-1.69002 1.50784,-0.65602 2.74152,-1.43543 2.74152,-1.73201 0,-0.29659 0.66429,-0.76889 1.4762,-1.04958 0.81192,-0.28068 2.61499,-1.24619 4.00684,-2.14559 3.5342,-2.28375 4.15828,-2.15883 5.9638,1.19384 0.87449,1.62382 1.88326,2.95241 2.2417,2.95241 0.35845,0 0.65172,0.75919 0.65172,1.68709 0,0.92789 0.3796,1.68708 0.84355,1.68708 0.46394,0 0.84354,0.4159 0.84354,0.92422 0,0.50832 0.85409,2.11625 1.89798,3.57319 1.04388,1.45694 2.4217,3.60331 3.06181,4.76972 2.66449,4.85519 3.14662,5.64987 5.13228,8.45918 1.14311,1.6173 2.37679,3.06707 2.74152,3.22172 0.36472,0.15465 0.66313,0.65626 0.66313,1.11468 0,0.45843 0.47449,1.33372 1.05443,1.9451 0.57993,0.61138 1.81362,2.19754 2.74152,3.52481 3.07228,4.39461 19.77214,20.54943 21.24272,20.54943 0.30613,0 1.15588,0.53087 1.88834,1.17972 2.04628,1.81269 7.56235,4.7251 8.9493,4.7251 0.68181,0 1.23965,0.28671 1.23965,0.63714 0,0.66448 4.79643,2.5262 8.43545,3.27419 1.15987,0.23841 2.86805,0.76466 3.79595,1.16943 5.87511,2.56292 44.52053,2.48875 47.19633,-0.0906 0.44075,-0.42486 1.8661,-0.77248 3.16743,-0.77248 1.30133,0 4.33322,-0.94899 6.73752,-2.10886 2.4043,-1.15987 4.86981,-2.10886 5.4789,-2.10886 0.6091,0 1.10745,-0.3796 1.10745,-0.84355 0,-0.46395 0.75919,-0.84354 1.68709,-0.84354 0.9279,0 1.68709,-0.35402 1.68709,-0.7867 0,-0.43269 0.76303,-1.02888 1.69563,-1.32487 3.98081,-1.26346 17.7059,-16.8546 17.7059,-20.11317 0,-0.68966 0.28469,-1.38045 0.63265,-1.53511 1.03393,-0.45952 3.58507,-5.7751 3.58507,-7.46988 0,-0.86292 0.37959,-1.80355 0.84354,-2.09029 0.46395,-0.28674 0.84355,-1.61532 0.84355,-2.95241 0,-1.33708 0.37959,-2.66566 0.84354,-2.9524 0.46395,-0.28674 0.84355,-1.85248 0.84355,-3.47942 0,-1.62695 0.39183,-3.69023 0.87075,-4.58508 2.67944,-5.0066 2.82281,-17.1896 3.08919,-262.50247 l 0.26632,-245.26063 h 68.32563 68.32562 l -0.35353,252.43076 c -0.19444,138.83692 -0.58663,255.84711 -0.87155,260.02266 -0.28492,4.17555 -0.84034,8.35109 -1.23428,9.27899 -0.72418,1.70576 -2.42523,10.6699 -3.20143,16.8709 -0.23231,1.85579 -0.76308,3.73479 -1.17951,4.17554 -0.41643,0.44075 -0.75714,2.22143 -0.75714,3.95705 0,1.73563 -0.3796,3.39029 -0.84355,3.67703 -0.46395,0.28674 -0.84354,1.59434 -0.84354,2.90577 0,1.31143 -0.56706,3.4717 -1.26012,4.8006 -0.69307,1.32889 -1.26246,3.05806 -1.26532,3.84259 -0.003,0.78453 -0.38479,1.66102 -0.84874,1.94776 -0.46395,0.28674 -0.84355,1.42552 -0.84355,2.53063 0,1.10511 -0.37959,2.2439 -0.84354,2.53064 -0.46395,0.28673 -0.84355,1.18708 -0.84355,2.00077 0,1.31974 -2.89091,8.21157 -5.08277,12.11715 -0.45212,0.80562 -0.82204,2.03931 -0.82204,2.74152 0,0.70222 -0.3796,1.27677 -0.84354,1.27677 -0.46395,0 -0.84355,0.57693 -0.84355,1.28208 0,0.70514 -0.94899,2.78537 -2.10886,4.62273 -1.15988,1.83736 -2.10886,3.72779 -2.10886,4.20096 0,0.47317 -0.3796,0.86031 -0.84355,0.86031 -0.46395,0 -0.84354,0.75919 -0.84354,1.68709 0,0.9279 -0.3796,1.68709 -0.84355,1.68709 -0.46395,0 -0.84354,0.53776 -0.84354,1.19502 0,0.65726 -0.2847,1.32155 -0.63266,1.47621 -0.68611,0.30493 -5.27216,7.136 -5.27216,7.8531 0,0.2408 -1.32858,1.8464 -2.9524,3.568 -1.62383,1.7215 -2.95241,3.4778 -2.95241,3.9028 0,1.0543 -22.98229,24.1493 -24.04964,24.1676 -0.46869,0.01 -1.79728,0.8752 -2.95241,1.9272 -3.23531,2.9462 -13.25858,9.897 -14.27191,9.897 -0.4968,0 -0.90624,0.2847 -0.90985,0.6326 -0.003,0.348 -0.85771,1.0516 -1.89798,1.5637 -1.04027,0.512 -5.66634,2.8844 -10.28016,5.2721 -4.61383,2.3877 -8.88427,4.3412 -9.48988,4.3412 -0.60561,0 -1.10111,0.3796 -1.10111,0.8435 0,0.464 -0.94899,0.8436 -2.10886,0.8436 -1.15988,0 -2.10887,0.3796 -2.10887,0.8435 0,0.464 -0.76434,0.8436 -1.69853,0.8436 -0.93419,0 -2.35768,0.3332 -3.16329,0.7405 -3.87418,1.9588 -8.00405,3.4772 -9.45727,3.4772 -0.88478,0 -1.84329,0.3796 -2.13003,0.8435 -0.28674,0.464 -1.82752,0.8436 -3.42396,0.8436 -1.59645,0 -2.90262,0.3796 -2.90262,0.8435 0,0.464 -1.49598,0.8436 -3.3244,0.8436 -1.82841,0 -3.53158,0.3352 -3.7848,0.7449 -0.25323,0.4098 -2.54721,1.0057 -5.09776,1.3244 -2.55054,0.3187 -4.85553,0.9324 -5.12219,1.3639 -0.26667,0.4315 -2.47431,0.7845 -4.90587,0.7845 -2.43155,0 -4.78161,0.352 -5.22236,0.7823 -0.44076,0.4302 -4.02793,1.0201 -7.9715,1.3108 -11.98573,0.8836 -66.10295,1.245 -67.90535,0.4535 z"
         id="path1100" />
      <path
         style="fill:#ffffff;fill-opacity:1;stroke:none;stroke-width:5.06127;stroke-opacity:1"
         d="m 899.21868,1074.5408 c -6.72727,-0.365 -15.64776,-1.047 -19.8233,-1.5155 -4.17555,-0.4685 -9.86948,-1.0649 -12.65317,-1.3254 -2.7837,-0.2604 -5.82046,-0.8309 -6.74836,-1.2676 -0.9279,-0.4367 -3.96466,-1.195 -6.74836,-1.685 -2.7837,-0.49 -6.76945,-1.2715 -8.85722,-1.7366 -2.08777,-0.4651 -4.93474,-1.0444 -6.32659,-1.2872 -1.39184,-0.2428 -3.28982,-0.7666 -4.21772,-1.164 -0.9279,-0.3974 -2.63608,-0.9024 -3.79595,-1.1224 -2.36769,-0.4489 -7.25944,-2.1078 -9.47843,-3.2144 -0.80562,-0.4018 -2.3965,-0.7305 -3.53528,-0.7305 -1.13879,0 -2.30513,-0.3796 -2.59187,-0.8436 -0.28674,-0.4639 -1.18708,-0.8435 -2.00077,-0.8435 -0.81369,0 -3.44659,-0.949 -5.85089,-2.1089 -2.40431,-1.1598 -4.75807,-2.1088 -5.23059,-2.1088 -0.47252,0 -1.51827,-0.3353 -2.32389,-0.7452 -0.80561,-0.4098 -2.41374,-1.1271 -3.57361,-1.594 -1.15988,-0.467 -4.92069,-2.2194 -8.35736,-3.8944 -3.43666,-1.675 -6.75812,-3.0454 -7.38101,-3.0454 -0.62289,0 -1.13549,-0.2847 -1.13911,-0.6327 -0.003,-0.348 -0.85771,-1.0401 -1.89797,-1.5382 -3.33864,-1.5984 -11.15641,-5.8286 -11.59216,-6.2725 -0.97174,-0.9899 -7.61229,-5.0533 -8.25831,-5.0533 -0.38641,0 -1.43843,-0.6834 -2.33783,-1.5185 -0.8994,-0.8352 -2.86895,-2.2456 -4.37678,-3.1343 -1.50784,-0.8887 -2.74152,-1.9136 -2.74152,-2.2775 0,-0.3639 -0.40671,-0.6616 -0.9038,-0.6616 -0.49709,0 -1.40402,-0.4745 -2.01539,-1.0545 -0.61138,-0.5799 -2.16531,-1.8136 -3.45318,-2.7415 -1.28788,-0.9279 -2.7602,-2.1006 -3.27183,-2.606 -0.51163,-0.5053 -1.35228,-1.0747 -1.86812,-1.2653 -1.10891,-0.4096 -13.12341,-11.1931 -19.21811,-17.24907 -5.66921,-5.63314 -16.04035,-17.22101 -18.9972,-21.22593 -1.3015,-1.76281 -3.17185,-4.04333 -4.15634,-5.06782 -0.98449,-1.02449 -1.78999,-2.1866 -1.78999,-2.58246 0,-0.39586 -0.6833,-1.45562 -1.51845,-2.35502 -0.83515,-0.8994 -2.24558,-2.86895 -3.13428,-4.37678 -0.88871,-1.50784 -1.91358,-2.74152 -2.2775,-2.74152 -0.36392,0 -0.66167,-0.37222 -0.66167,-0.82717 0,-1.07571 -5.97266,-10.47502 -6.88931,-10.84186 -0.38643,-0.15466 -0.73033,-0.91385 -0.76424,-1.68709 -0.0339,-0.77326 -0.79753,-2.5447 -1.69692,-3.93655 -0.8994,-1.39185 -1.86491,-3.19492 -2.14559,-4.00684 -0.28068,-0.81191 -0.84565,-1.4762 -1.25549,-1.4762 -1.1095,0 -0.90063,-2.49691 0.30927,-3.69717 0.57993,-0.57532 2.28811,-1.58986 3.79595,-2.25454 1.50784,-0.66467 2.74152,-1.45115 2.74152,-1.74773 0,-0.29658 0.66429,-0.76733 1.4762,-1.0461 0.81191,-0.27878 2.99459,-1.46988 4.85038,-2.64689 1.8558,-1.177 3.94358,-2.38894 4.6395,-2.69318 0.69593,-0.30424 2.76104,-1.48536 4.58915,-2.6247 5.82246,-3.62876 11.81271,-6.98655 13.33618,-7.47548 0.81191,-0.26057 1.4762,-0.8091 1.4762,-1.21893 0,-0.40984 0.56939,-0.74517 1.26532,-0.74517 0.69592,0 1.26531,-0.37959 1.26531,-0.84354 0,-0.46395 0.75919,-0.84355 1.68709,-0.84355 0.9279,0 1.68709,-0.28958 1.68709,-0.64351 0,-0.68431 1.04808,-1.31472 6.62356,-3.98409 1.92444,-0.92136 3.49898,-1.96525 3.49898,-2.31975 0,-0.3545 0.39783,-0.64455 0.88407,-0.64455 0.48623,0 2.96097,-1.32858 5.49942,-2.9524 2.53844,-1.62383 4.81601,-2.95241 5.06126,-2.95241 0.24526,0 2.52283,-1.32858 5.06127,-2.95241 2.53845,-1.62382 4.98758,-2.9524 5.44252,-2.9524 0.45494,0 0.82717,-0.3796 0.82717,-0.84355 0,-0.46395 0.58274,-0.84354 1.29499,-0.84354 1.19496,0 5.31727,-2.24042 6.29691,-3.42227 0.23197,-0.27987 1.65546,-1.04559 3.16329,-1.70161 1.50784,-0.65602 2.74152,-1.4797 2.74152,-1.8304 0,-0.35069 0.39784,-0.63763 0.88407,-0.63763 0.48624,0 2.96097,-1.32858 5.49941,-2.9524 2.53845,-1.62383 4.80533,-2.95241 5.03752,-2.95241 0.23218,0 1.92545,-0.94899 3.76281,-2.10886 5.56441,-3.51267 5.71947,-3.41319 12.90149,8.27612 0.8325,1.35497 2.06619,3.01612 2.74152,3.69145 0.67533,0.67533 1.22788,1.50878 1.22788,1.85211 0,0.34332 0.66429,1.36041 1.47621,2.26018 0.81191,0.89977 2.59974,3.13823 3.97295,4.97434 6.21312,8.30752 28.55669,30.82241 30.5899,30.82446 0.36033,3.6e-4 2.14757,1.32894 3.97166,2.9524 1.82409,1.62346 3.81696,2.95175 4.42861,2.95175 0.61165,0 1.11209,0.3796 1.11209,0.84355 0,0.46395 0.53776,0.84354 1.19502,0.84354 0.65726,0 1.32155,0.32197 1.4762,0.7155 0.39979,1.01729 8.10988,5.18931 9.5901,5.18931 0.67947,0 1.23539,0.3796 1.23539,0.84355 0,0.46395 0.71271,0.84354 1.58381,0.84354 0.87109,0 2.00444,0.50685 2.51855,1.12632 0.51412,0.61948 2.55347,1.63446 4.53191,2.25554 1.97842,0.62107 3.95775,1.44281 4.3985,1.82609 0.44075,0.38328 1.86423,0.69687 3.16329,0.69687 1.29906,0 2.36193,0.31564 2.36193,0.70142 0,0.68715 5.52761,2.36886 10.54431,3.20798 1.39184,0.23281 3.28982,0.7587 4.21772,1.16866 3.01943,1.33402 10.57885,1.82816 33.67263,2.2011 14.96625,0.2417 23.0033,0.0699 23.57708,-0.50383 0.47879,-0.47879 2.85997,-0.87052 5.29152,-0.87052 2.43155,0 4.65561,-0.37959 4.94235,-0.84354 0.28674,-0.46395 1.49187,-0.84355 2.67808,-0.84355 2.48956,0 10.68254,-2.64621 11.09981,-3.58506 0.15466,-0.34797 1.38834,-0.63266 2.74152,-0.63266 1.35319,0 2.46034,-0.3796 2.46034,-0.84355 0,-0.46395 0.44184,-0.84354 0.98187,-0.84354 1.57414,0 7.45358,-2.78963 7.45358,-3.53652 0,-0.37466 0.72756,-0.68121 1.6168,-0.68121 0.88923,0 1.74332,-0.28469 1.89797,-0.63265 0.15465,-0.34797 1.27685,-1.20206 2.49377,-1.89798 4.80354,-2.747 16.76719,-13.08763 16.76719,-14.49251 0,-0.42071 0.9566,-1.79225 2.1258,-3.04786 1.1691,-1.25561 2.5904,-3.32682 3.1583,-4.60268 0.5679,-1.27586 1.3195,-2.31975 1.6702,-2.31975 0.3506,0 0.6376,-0.57454 0.6376,-1.27676 0,-0.70222 0.3612,-1.9359 0.8027,-2.74152 1.3526,-2.46835 3.2277,-7.23564 3.8939,-9.9002 1.0618,-4.24648 1.3975,-29.25037 0.4061,-30.24179 -0.4867,-0.48676 -0.885,-1.97139 -0.885,-3.29918 0,-1.32778 -0.9031,-4.38352 -2.0069,-6.79054 -1.1037,-2.407 -2.525,-5.61005 -3.1583,-7.11789 -0.6333,-1.50783 -1.4384,-2.74152 -1.7891,-2.74152 -0.3507,0 -0.6496,-0.47449 -0.6642,-1.05443 -0.071,-2.79374 -17.91548,-20.86907 -22.19518,-22.4817 -0.49431,-0.18626 -1.65193,-1.04035 -2.57249,-1.89797 -0.92056,-0.85763 -2.00708,-1.55933 -2.4145,-1.55933 -0.40742,0 -1.98495,-0.94899 -3.50563,-2.10886 -1.52067,-1.15987 -3.20353,-2.10886 -3.73967,-2.10886 -0.53615,0 -0.97481,-0.3796 -0.97481,-0.84355 0,-0.46395 -0.75919,-0.84354 -1.68709,-0.84354 -0.92789,0 -1.69005,-0.2847 -1.69366,-0.63266 -0.003,-0.34796 -0.85771,-1.04014 -1.89798,-1.53819 -1.04027,-0.49803 -3.78937,-1.88446 -6.10912,-3.08095 -9.23055,-4.76097 -16.77202,-8.24492 -17.84723,-8.24492 -0.62289,0 -1.13253,-0.37959 -1.13253,-0.84354 0,-0.46395 -0.46904,-0.84355 -1.04232,-0.84355 -0.88774,0 -6.61984,-2.50244 -11.81029,-5.15598 -0.80562,-0.41185 -2.0393,-0.74883 -2.74152,-0.74883 -0.70221,0 -1.27676,-0.37959 -1.27676,-0.84354 0,-0.46395 -0.47449,-0.84701 -1.05443,-0.85126 -0.57994,-0.004 -2.95241,-0.94136 -5.27216,-2.08248 -2.31974,-1.14112 -4.88201,-2.08665 -5.69392,-2.10115 -0.81191,-0.0145 -1.47621,-0.40598 -1.47621,-0.86993 0,-0.46395 -0.7863,-0.84354 -1.74734,-0.84354 -0.96103,0 -2.26864,-0.5213 -2.90578,-1.15845 -0.63715,-0.63714 -2.88761,-1.669 -5.00102,-2.29302 -2.11341,-0.62402 -3.84257,-1.4313 -3.84257,-1.79396 0,-0.36266 -0.94899,-0.65938 -2.10886,-0.65938 -1.15988,0 -2.10887,-0.3796 -2.10887,-0.84355 0,-0.46395 -0.53862,-0.84354 -1.19695,-0.84354 -0.65833,0 -2.46141,-0.63362 -4.00684,-1.40805 -5.12007,-2.56569 -5.72935,-2.80968 -7.01616,-2.80968 -0.70221,0 -1.27676,-0.37959 -1.27676,-0.84354 0,-0.46395 -0.94899,-0.84355 -2.10886,-0.84355 -1.15988,0 -2.10886,-0.37959 -2.10886,-0.84354 0,-0.46395 -0.36922,-0.84355 -0.82049,-0.84355 -0.76664,0 -8.75842,-3.4097 -12.03213,-5.13352 -0.80561,-0.4242 -2.0393,-0.77129 -2.74152,-0.77129 -0.70221,0 -1.27676,-0.2853 -1.27676,-0.63401 0,-0.3487 -2.37247,-1.7071 -5.27215,-3.01866 -6.67767,-3.02038 -10.15012,-4.75166 -15.21374,-7.58515 -2.22022,-1.24239 -4.59269,-2.25889 -5.27215,-2.25889 -0.67947,0 -1.23779,-0.2847 -1.24072,-0.63266 -0.007,-0.8486 -4.88432,-3.58507 -6.38962,-3.58507 -0.65832,0 -1.19695,-0.37959 -1.19695,-0.84354 0,-0.46395 -0.37223,-0.84355 -0.82717,-0.84355 -0.45494,0 -2.90408,-1.32858 -5.44252,-2.9524 -2.53845,-1.62383 -5.01318,-2.95241 -5.49942,-2.95241 -0.48623,0 -0.88406,-0.3796 -0.88406,-0.84355 0,-0.46395 -0.53776,-0.84354 -1.19503,-0.84354 -0.65725,0 -1.32155,-0.2847 -1.4762,-0.63266 -0.40682,-0.91535 -9.79717,-6.95924 -10.81252,-6.95924 -0.47108,0 -0.8591,-0.2847 -0.86228,-0.63266 -0.003,-0.34796 -1.32382,-1.53025 -2.93479,-2.6273 -1.61097,-1.09705 -3.75423,-2.71033 -4.7628,-3.58506 -1.00858,-0.87474 -2.0604,-1.6012 -2.33737,-1.61437 -0.27697,-0.0132 -2.21176,-1.56528 -4.29953,-3.44914 -2.08778,-1.88387 -5.10837,-4.43536 -6.71244,-5.66999 -4.72569,-3.63732 -17.76938,-16.97892 -23.24926,-23.78029 -5.5562,-6.89607 -13.05909,-17.27758 -13.05909,-18.06945 0,-0.76139 -4.55168,-7.59452 -5.27215,-7.91473 -0.34796,-0.15465 -0.63266,-1.00874 -0.63266,-1.89797 0,-0.88924 -0.37959,-1.6168 -0.84354,-1.6168 -0.46395,0 -0.83761,-0.47449 -0.83036,-1.05443 0.0164,-1.31432 -4.4238,-10.2317 -5.28534,-10.6146 -0.34796,-0.15466 -0.63266,-1.17614 -0.63266,-2.26997 0,-1.09383 -0.3796,-2.22338 -0.84355,-2.51012 -0.46395,-0.28674 -0.84354,-1.26328 -0.84354,-2.1701 0,-0.90681 -0.33325,-2.30788 -0.74056,-3.1135 -1.95873,-3.87418 -3.47716,-8.00405 -3.47716,-9.45727 0,-0.88478 -0.3796,-1.84329 -0.84355,-2.13003 -0.46395,-0.28673 -0.84354,-1.7516 -0.84354,-3.25525 0,-1.50365 -0.3428,-3.09453 -0.76177,-3.53528 -0.41896,-0.44075 -0.96129,-2.50955 -1.20517,-4.59732 -0.76985,-6.5905 -2.29608,-14.69858 -3.09631,-16.44912 -2.43184,-5.31978 -2.41883,-60.70459 0.0155,-65.79649 0.7665,-1.60333 2.10002,-8.07523 3.08623,-14.97821 0.24898,-1.74272 0.79218,-3.3784 1.20713,-3.63484 0.41494,-0.25646 0.75444,-1.75005 0.75444,-3.31911 0,-1.56906 0.37959,-3.08745 0.84354,-3.37418 0.46395,-0.28674 0.84245,-1.16323 0.84112,-1.94776 -10e-4,-0.78453 0.99199,-3.89379 2.20738,-6.90946 1.2154,-3.01567 2.51444,-6.24223 2.88676,-7.17013 1.19375,-2.97503 8.76918,-18.54267 9.23582,-18.97976 0.82782,-0.77539 5.07399,-7.54842 5.07399,-8.09346 0,-0.53535 5.82376,-8.81758 6.76512,-9.62098 0.27181,-0.23197 1.59205,-1.94015 2.93387,-3.79595 2.8796,-3.98261 25.26417,-26.57166 26.33114,-26.57166 0.4039,0 2.1429,-1.32858 3.86446,-2.9524 1.72156,-1.62383 3.36859,-2.95241 3.66007,-2.95241 0.29147,0 2.37925,-1.32858 4.63948,-2.95241 2.26025,-1.62382 4.48826,-2.9524 4.95113,-2.9524 0.46288,0 0.84456,-0.2847 0.84818,-0.63266 0.003,-0.34797 0.8577,-1.05745 1.89797,-1.57664 5.65423,-2.82198 7.37444,-3.8952 7.37444,-4.60085 0,-0.42996 0.73678,-0.78176 1.6373,-0.78176 0.90052,0 1.87191,-0.37959 2.15865,-0.84354 0.28674,-0.46395 1.2265,-0.84355 2.08835,-0.84355 0.86185,0 1.69354,-0.28469 1.84819,-0.63266 0.33152,-0.7459 8.28588,-4.62287 12.51258,-6.09865 4.2354,-1.47881 6.8345,-2.53687 9.55824,-3.89103 1.31346,-0.653 3.30633,-1.18728 4.42861,-1.18728 1.12228,0 2.0405,-0.3796 2.0405,-0.84355 0,-0.46395 1.30618,-0.84354 2.90262,-0.84354 1.59644,0 3.11131,-0.33766 3.36636,-0.75035 0.25506,-0.41268 1.70094,-0.95044 3.21308,-1.19501 5.13478,-0.83048 11.18178,-2.4473 11.98616,-3.20479 0.44075,-0.41507 2.7373,-0.75467 5.10344,-0.75467 2.36614,0 4.66269,-0.35002 5.10345,-0.77783 0.86093,-0.83566 4.41474,-1.16511 27.49061,-2.54849 18.38012,-1.10188 63.26789,0.65067 65.21495,2.54618 0.44075,0.42908 2.62858,0.78014 4.86183,0.78014 2.23325,0 4.7196,0.36426 5.52522,0.80946 1.6319,0.90182 8.21745,2.491 13.06878,3.15367 1.74273,0.23805 3.3784,0.77231 3.63485,1.18725 0.25645,0.41494 1.56025,0.75444 2.89734,0.75444 1.33708,0 2.66567,0.37959 2.9524,0.84354 0.28674,0.46395 1.42553,0.84355 2.53064,0.84355 1.10502,0 2.22582,0.35039 2.49052,0.77864 0.2646,0.42826 1.698,1.04592 3.1853,1.37258 1.4873,0.32666 3.4758,0.98453 4.419,1.46192 4.0138,2.03173 4.7253,2.29167 6.2725,2.29167 0.8955,0 1.7548,0.2847 1.9094,0.63266 0.3716,0.8361 12.6535,6.98823 13.9185,6.97193 0.5413,-0.007 1.1107,0.27201 1.2653,0.61997 0.3296,0.74141 7.164,5.27216 7.9529,5.27216 0.7429,0 9.1335,6.14643 9.4804,6.94478 0.1546,0.35591 0.724,0.65041 1.2653,0.65444 0.5413,0.004 2.3127,1.23877 3.9366,2.74389 1.6238,1.50511 4.3638,3.78956 6.089,5.07654 4.2768,3.19055 19.7551,18.62248 23.8767,23.80518 1.8449,2.31974 3.5462,4.40752 3.7808,4.63949 0.2347,0.23198 1.5517,1.94015 2.9269,3.79595 1.3752,1.8558 3.1761,4.11005 4.0021,5.00944 0.8259,0.8994 1.5017,1.88986 1.5017,2.20104 0,0.31118 1.3249,2.23247 2.9442,4.26955 1.6193,2.03708 2.9479,4.14664 2.9524,4.68792 0,0.54127 0.2929,1.11066 0.6409,1.26531 0.7867,0.34968 5.2653,7.17708 5.2909,8.06589 0.01,0.3579 0.761,1.59973 1.6683,2.7596 0.9073,1.15988 1.658,2.38879 1.6683,2.73094 0.01,0.34215 -1.5945,1.63257 -3.5663,2.86763 -1.9718,1.23504 -3.7748,2.47712 -4.0068,2.76017 -0.232,0.28305 -1.8709,1.27019 -3.642,2.19364 -1.7711,0.92347 -3.9379,2.34331 -4.8151,3.15522 -0.8772,0.81191 -1.7932,1.47621 -2.0356,1.47621 -0.8009,0 -10.1685,6.1725 -10.4553,6.88931 -0.1547,0.38643 -0.6373,0.70259 -1.0726,0.70259 -0.9727,0 -7.8177,4.39747 -8.2064,5.27215 -0.1547,0.34797 -0.6218,0.63266 -1.0381,0.63266 -1.0255,0 -10.4188,6.0078 -10.7716,6.88932 -0.1546,0.38642 -0.6372,0.70258 -1.0725,0.70258 -0.9727,0 -7.8177,4.39747 -8.2064,5.27216 -0.1547,0.34796 -0.819,0.63266 -1.4762,0.63266 -0.6573,0 -1.1951,0.37959 -1.1951,0.84354 0,0.46395 -0.3877,0.84355 -0.8616,0.84355 -1.0241,0 -7.8724,4.36223 -8.2768,5.27215 -0.1546,0.34796 -0.6373,0.63266 -1.0725,0.63266 -0.9728,0 -7.8177,4.39747 -8.2065,5.27215 -0.1546,0.34797 -0.8189,0.63266 -1.4762,0.63266 -0.6572,0 -1.195,0.3796 -1.195,0.84355 0,0.46395 -0.4292,0.84354 -0.9537,0.84354 -0.5245,0 -2.803,1.32859 -5.0632,2.95241 -2.2602,1.62382 -4.3404,2.95241 -4.6227,2.95241 -0.2822,0 -2.9566,1.70817 -5.9432,3.79595 -2.9866,2.08777 -6.1003,3.79595 -6.9194,3.79595 -0.919,0 -1.9328,-1.13056 -2.6477,-2.95241 -0.6371,-1.62382 -1.4672,-2.9524 -1.8445,-2.9524 -0.3774,0 -0.6861,-0.43866 -0.6861,-0.97481 0,-0.53614 -0.949,-2.219 -2.10882,-3.73967 -1.15988,-1.52068 -2.10886,-3.16978 -2.10886,-3.66469 0,-0.49491 -0.2847,-0.90817 -0.63266,-0.91837 -0.34797,-0.0102 -1.77145,-1.71756 -3.1633,-3.79412 -1.39184,-2.07656 -2.81533,-3.7764 -3.16329,-3.7774 -0.34796,-8.4e-4 -0.63266,-0.43497 -0.63266,-0.96435 0,-1.01511 -15.37518,-16.75193 -16.36697,-16.75193 -0.31766,0 -1.54657,-0.89853 -2.73093,-1.99672 -2.53859,-2.35391 -16.53032,-9.8129 -18.40725,-9.8129 -0.71385,0 -1.2979,-0.3796 -1.2979,-0.84355 0,-0.46395 -1.11639,-0.84354 -2.48085,-0.84354 -1.36447,0 -2.71546,-0.3796 -3.0022,-0.84355 -0.28673,-0.46395 -1.9414,-0.84354 -3.67702,-0.84354 -1.73563,0 -3.62987,-0.4745 -4.20943,-1.05443 -1.50887,-1.50987 -38.38722,-1.50987 -39.89901,0 -0.58067,0.57993 -2.49824,1.05443 -4.26124,1.05443 -1.76301,0 -3.20547,0.37959 -3.20547,0.84354 0,0.46395 -1.13879,0.84355 -2.53064,0.84355 -1.39185,0 -2.53063,0.37959 -2.53063,0.84354 0,0.46395 -0.57694,0.84355 -1.28208,0.84355 -0.70515,0 -2.78538,0.94898 -4.62274,2.10886 -1.83735,1.15987 -3.5645,2.10886 -3.83808,2.10886 -0.94115,0 -7.55394,4.90346 -10.41365,7.72183 -3.48454,3.43417 -9.36752,11.27638 -9.36752,12.48722 0,0.48377 -0.28469,0.88253 -0.63266,0.88615 -0.85592,0.009 -2.74152,4.18135 -2.74152,6.0664 0,0.8354 -0.30776,1.51892 -0.6839,1.51892 -1.2289,0 -3.42875,9.54236 -3.88933,16.87089 -0.70808,11.26672 1.68082,30.36761 3.798,30.36761 0.42638,0 0.77523,0.74572 0.77523,1.65716 0,1.79492 4.021,9.55274 5.18932,10.01188 0.39352,0.15465 0.7155,0.74939 0.7155,1.32165 0,1.35238 11.24575,13.01911 15.60489,16.18905 1.85542,1.34926 4.10967,3.11748 5.00944,3.92939 0.89977,0.81192 2.13376,1.47621 2.7422,1.47621 0.60845,0 1.10626,0.31852 1.10626,0.70783 0,0.38931 1.51403,1.43319 3.36451,2.31975 1.85047,0.88655 3.36885,1.89661 3.37418,2.24457 0.005,0.34796 0.76886,0.63266 1.69676,0.63266 0.9279,0 1.68949,0.2847 1.69242,0.63266 0.007,0.8486 4.88432,3.58506 6.38962,3.58506 0.65832,0 1.19695,0.3796 1.19695,0.84355 0,0.46395 0.75919,0.84354 1.68709,0.84354 0.9279,0 1.68709,0.3796 1.68709,0.84355 0,0.46395 0.57694,0.84354 1.28208,0.84354 0.70514,0 2.78538,0.94899 4.62273,2.10887 1.83736,1.15987 3.73294,2.10886 4.21241,2.10886 0.47947,0 1.53089,0.32981 2.33651,0.7329 0.80562,0.4031 3.45485,1.73168 5.88719,2.95241 2.43233,1.22073 4.9946,2.2195 5.69392,2.2195 0.69933,0 1.2715,0.3796 1.2715,0.84355 0,0.46394 0.57455,0.84354 1.27677,0.84354 0.70221,0 1.9359,0.33698 2.74152,0.74883 2.07459,1.06061 11.22179,5.19134 13.48527,6.08974 1.04388,0.41434 2.75206,1.09233 3.79595,1.50666 1.04388,0.41433 4.17554,1.79202 6.95924,3.06153 2.7837,1.26951 5.82046,2.60086 6.74836,2.95855 0.9279,0.3577 3.58506,1.48429 5.90481,2.50353 5.80527,2.55069 9.81135,4.26805 11.80963,5.06265 2.31746,0.92151 13.62309,6.21722 22.77566,10.66843 4.1755,2.03071 8.0348,3.68777 8.576,3.68235 0.5413,-0.005 1.1107,0.29932 1.2654,0.67719 0.1546,0.37786 3.5077,2.282 7.4513,4.23142 7.1825,3.55052 13.0318,6.75191 18.5579,10.15691 1.6239,1.00055 3.6167,2.04792 4.4287,2.3275 0.8119,0.27958 1.4762,0.751 1.4762,1.04758 0,0.29658 1.2336,1.07599 2.7415,1.73202 1.5078,0.65601 2.9313,1.41653 3.1633,1.69002 0.8786,1.03583 7.5933,5.12094 8.4173,5.12094 0.4739,0 0.8617,0.31983 0.8617,0.71072 0,0.39089 1.3285,1.42619 2.9524,2.30068 1.6238,0.87449 2.9524,1.88326 2.9524,2.24169 0,0.35845 0.5694,0.65173 1.2653,0.65173 0.6959,0 1.2653,0.37959 1.2653,0.84354 0,0.46395 0.4745,0.84384 1.0544,0.8442 0.58,3.7e-4 2.5469,1.32895 4.371,2.95241 1.8241,1.62346 3.6775,2.95175 4.1188,2.95175 0.4412,0 1.4161,0.66878 2.1665,1.48618 0.7503,0.8174 3.8316,3.56206 6.8473,6.09924 7.1551,6.01982 21.7508,20.59641 24.923,24.89037 1.3707,1.85542 3.1857,4.13299 4.0333,5.06127 0.8476,0.92827 2.1631,2.73166 2.9234,4.00752 0.7603,1.27586 1.68,2.31975 2.044,2.31975 0.3639,0 0.6616,0.56939 0.6616,1.26531 0,0.69593 0.3796,1.26532 0.8436,1.26532 0.4639,0 0.8435,0.40492 0.8435,0.89983 0,0.4949 0.949,2.14401 2.1089,3.66468 1.1599,1.52068 2.1088,3.1719 2.1088,3.66938 0,0.49748 0.2847,1.03104 0.6327,1.1857 0.348,0.15464 1.4893,1.93508 2.5363,3.95652 1.047,2.02144 2.4269,4.67861 3.0666,5.90481 0.6396,1.22621 1.9981,4.12745 3.019,6.44719 1.0208,2.31975 2.3929,5.29238 3.0491,6.60584 0.6562,1.31345 1.1931,3.11653 1.1931,4.00683 0,0.89031 0.3796,1.61873 0.8435,1.61873 0.464,0 0.8435,1.11638 0.8435,2.48085 0,1.36447 0.3796,2.71546 0.8436,3.00219 0.4639,0.28674 0.8435,1.61532 0.8435,2.95241 0,1.33709 0.3358,2.6386 0.7462,2.89225 0.4105,0.25365 1.0018,2.16518 1.3141,4.24784 0.3123,2.08267 0.9255,4.00772 1.3627,4.27789 0.4371,0.27017 0.7948,2.10107 0.7948,4.06867 0,1.96761 0.3488,3.93808 0.7753,4.37883 0.7757,0.80186 0.9389,2.26151 2.5415,22.73353 0.4721,6.03134 1.2476,12.55765 1.7232,14.50291 1.1033,4.51248 1.113,12.78667 0.019,15.94971 -0.4653,1.34509 -1.2389,7.38036 -1.719,13.4117 -1.4809,18.60429 -1.7692,21.06215 -2.5671,21.88999 -0.4249,0.44075 -0.7725,2.05919 -0.7725,3.59651 0,1.53733 -0.3522,3.45428 -0.7827,4.2599 -1.1937,2.23401 -3.435,10.00319 -3.435,11.9069 0,0.92933 -0.3796,1.92429 -0.8436,2.21103 -0.4639,0.28674 -0.8435,1.44793 -0.8435,2.58042 0,1.13249 -0.3796,2.05908 -0.8436,2.05908 -0.4639,0 -0.847,0.66429 -0.8512,1.4762 0,0.81191 -0.9414,3.37418 -2.0825,5.69393 -1.1411,2.31974 -2.0867,4.88201 -2.1012,5.69392 -0.014,0.81191 -0.406,1.47621 -0.8699,1.47621 -0.464,0 -0.8436,0.57693 -0.8436,1.28207 0,0.70515 -0.8837,2.69802 -1.9639,4.42861 -1.0802,1.7306 -2.5014,4.38022 -3.1583,5.88806 -0.6569,1.50783 -1.4813,2.74152 -1.832,2.74152 -0.3507,0 -0.6377,0.40491 -0.6377,0.89982 0,0.49491 -0.9489,2.14401 -2.1088,3.66469 -1.1599,1.52067 -2.1089,3.20353 -2.1089,3.73967 0,0.53615 -0.2977,0.97481 -0.6616,0.97481 -0.364,0 -1.2838,1.04388 -2.044,2.31975 -0.7603,1.27586 -2.0758,3.07925 -2.9234,4.00752 -0.8476,0.92828 -2.5578,3.01605 -3.8005,4.63949 -5.0471,6.59382 -12.4782,14.39692 -18.8774,19.82262 -2.1888,1.8558 -5.5407,4.7875 -7.4488,6.5149 -1.908,1.7274 -3.9436,3.1509 -4.5235,3.1633 -0.58,0.012 -1.0545,0.4022 -1.0545,0.8661 0,0.464 -0.5694,0.8436 -1.2653,0.8436 -0.6959,0 -1.2653,0.2977 -1.2653,0.6616 0,0.3639 -1.2337,1.3888 -2.7415,2.2775 -1.5079,0.8887 -3.4774,2.2991 -4.3768,3.1343 -0.8994,0.8352 -1.9615,1.5185 -2.3603,1.5185 -0.3987,0 -2.6996,1.2495 -5.1131,2.7768 -2.4134,1.5272 -6.4758,3.8201 -9.0276,5.0953 -2.5517,1.2752 -5.2088,2.6388 -5.9048,3.0303 -0.6959,0.3914 -2.2143,1.0966 -3.3742,1.567 -3.544,1.4373 -8.6843,3.6979 -12.1789,5.356 -1.827,0.8669 -3.9872,1.5761 -4.8006,1.5761 -0.8134,0 -1.7135,0.3796 -2.0002,0.8435 -0.2867,0.464 -1.2633,0.8436 -2.1701,0.8436 -0.9068,0 -2.3079,0.3287 -3.1135,0.7305 -2.7264,1.3596 -7.3562,2.8532 -10.1189,3.2644 -1.5122,0.2251 -2.958,0.7469 -3.2131,1.1595 -0.2551,0.4127 -1.7475,0.7504 -3.3166,0.7504 -1.569,0 -3.0626,0.3395 -3.3191,0.7544 -0.2564,0.415 -1.8921,0.9539 -3.63478,1.1977 -5.3717,0.7515 -12.36296,2.2851 -14.13466,3.1007 -0.9279,0.4271 -3.96466,0.9882 -6.74836,1.2469 -2.78369,0.2587 -8.28782,0.8477 -12.23139,1.309 -18.32788,2.1436 -45.06119,2.7517 -67.48358,1.5351 z"
         id="path1139" />
    </g>
  </g>
</svg>
